<svg xmlns="http://www.w3.org/2000/svg"  viewBox="0 0 100 100" width="100px" height="100px"><path fill="#fdd4b2" d="M62.999,98c-0.479,0-0.893-0.341-0.981-0.816l-6-32c-0.081-0.431,0.128-0.864,0.516-1.068 C56.681,64.038,56.841,64,57,64c0.259,0,0.515,0.101,0.707,0.293l0.879,0.878l-2.576-18.03c-0.061-0.426,0.158-0.844,0.543-1.036 C56.695,46.035,56.848,46,57,46c0.259,0,0.515,0.101,0.707,0.293l2.115,2.115l-1.157-17.129h-0.039 c-2.437,0-4.275,0.127-8.626,1.83v27.655l1.895,3.789c0.155,0.31,0.139,0.678-0.044,0.973C51.668,65.82,51.347,66,51,66H37 c-0.349,0-0.671-0.181-0.854-0.478c-0.182-0.297-0.195-0.667-0.037-0.978L38,60.849V39.425c-2.124,1.364-4.782,2.717-7,3.353 v13.986l1.895,3.789c0.155,0.31,0.139,0.678-0.044,0.973C32.668,61.82,32.347,62,32,62H18c-0.347,0-0.668-0.18-0.851-0.474 c-0.183-0.295-0.199-0.663-0.044-0.973l1.896-3.793l0.142-14.282c-2.144-0.964-5.282-2.799-6.911-3.83 c-0.814-0.515-3.292-2.082-4.035-6.032C8.186,32.554,8.18,32.492,8.18,32.43v-0.2c0-0.421,0.264-0.797,0.659-0.94 c0.606-0.22,1.16-0.44,1.69-0.651c1.354-0.538,2.632-1.047,4.264-1.342c0.06-0.011,0.119-0.016,0.179-0.016 c0.232,0,0.46,0.081,0.641,0.232c0.228,0.19,0.359,0.471,0.359,0.768c0.059,0.288,0.07,0.803-0.523,1.335 c-0.316,0.283-0.744,0.63-1.192,0.992c-0.362,0.293-0.738,0.597-1.075,0.885c-0.103,0.088-0.112,0.196-0.109,0.253 c0.004,0.066,0.029,0.16,0.131,0.229l0.248,0.168c1.083,0.676,2.788,1.397,4.292,2.034c0.441,0.187,0.866,0.367,1.258,0.539V14.236 l-1.895-3.789c-0.155-0.31-0.139-0.678,0.044-0.973C17.332,9.18,17.653,9,18,9h14c0.347,0,0.668,0.18,0.851,0.474 c0.183,0.295,0.199,0.663,0.044,0.973L31,14.236v22.142c1.879-1.066,5.296-3.167,7-4.439V12.236l-1.895-3.789 c-0.155-0.31-0.139-0.678,0.044-0.973C36.332,7.18,36.653,7,37,7h13.91c0.344,0,0.663,0.176,0.846,0.467 c0.184,0.29,0.205,0.654,0.057,0.964L50,12.227V27.19c1.652-0.435,4.656-1.083,7.853-1.083c0.106,0,0.214,0,0.321,0.002 l-0.173-5.075c-0.01-0.271,0.092-0.534,0.28-0.729C58.47,20.11,58.729,20,59,20h11c0.553,0,1,0.448,1,1v2.647 c1.625-0.495,3.648-1.102,5.005-1.505c0.291-0.087,0.593-0.132,0.895-0.132c1.04,0,2.003,0.524,2.577,1.403l0.071,0.109 c1.267,1.926,5.121,7.788,7.14,10.279c0.153,0.189,0.231,0.428,0.222,0.671c-0.043,1.048-0.084,2.279-0.128,3.595 c-0.146,4.433-0.329,9.949-0.763,12.718c-0.032,0.2-0.404,1.829-0.404,1.829c-0.042,0.184-0.135,0.351-0.268,0.483 c-1.521,1.521-2.659,1.98-4.719,2.601c-1.155,0.385-3.573,0.979-5.045,1.237c-0.117,0.021-0.236,0.031-0.355,0.031l0,0 c-0.566,0-1.146-0.241-1.514-0.629c-0.521-0.611-1.148-1.202-1.812-1.827c-0.237-0.224-0.477-0.45-0.716-0.68l0.812,12.103 c0.027,0.416-0.205,0.805-0.585,0.978C71.28,66.971,71.14,67,71,67c-0.26,0-0.516-0.101-0.707-0.293l-2.149-2.149l0.854,15.387 c0.023,0.414-0.211,0.799-0.59,0.969C68.277,80.972,68.138,81,68,81c-0.26,0-0.516-0.101-0.707-0.293l-1.508-1.508l-1.79,17.9 c-0.05,0.495-0.455,0.878-0.952,0.899C63.028,98,63.014,98,62.999,98z M71,48.047c0.733,0.715,2.451,1.865,3.921,2.691 c0.213-0.324,0.45-0.737,0.534-0.929c0.38-1.909,1.342-7.057,1.342-8.57c0-5.465-0.539-9.146-1.348-12.99 c-0.01-0.047-0.017-0.095-0.02-0.144c-0.83,0.12-2.944,0.432-4.43,0.711V48.047z"/><polygon fill="#fbb97f" points="17.5,9.5 24.5,14 32.5,9.5"/><polygon fill="#fbb97f" points="17.5,61.5 24.5,57 32.5,61.5"/><polygon fill="#fbb97f" points="36.5,65.65 43.5,61.15 51.5,65.65"/><polygon fill="#fbb97f" points="36.5,7 43.5,11.5 51.5,7"/><polygon fill="#fbb97f" points="58.5,20.5 64.5,25 70.5,20.5"/><polygon fill="#f59173" points="18.978,42.435 18.978,56.5 17.5,61.5 24.5,57 24.5,14 17.5,9.5 18.978,14.424 18.978,36.5 20,38 20,42"/><polygon fill="#f59173" points="36.149,7.474 43.5,12 43.5,61 36.5,65.5 39,61 39,12"/><path fill="#f59173" d="M75.005,51.5c0,0,5.151-1.754,5.495-3c0.532-1.928,1-14,1-14l-5.761-7c0,0,1.355,9.109,1.058,12.554 S75.005,51.5,75.005,51.5z"/><polygon fill="#f59173" points="63,97.5 61.5,71.5 64.5,74.5 62.5,53.5 65.5,56.5 64.5,25 58.94,20.643 61,51 56.332,46.087 59.682,67.364 56.601,64.405"/><path fill="#1f212b" d="M50.91,8L49,12v16.52c0,0,6.355-1.599,9.8-1.599c0.205,0,0.401,0.006,0.584,0.018L59,21h11v4 c1.68-0.52,4.54-1.38,6.29-1.9c0.203-0.061,0.408-0.09,0.61-0.09c0.693,0,1.345,0.346,1.74,0.95c1.21,1.84,5.18,7.89,7.27,10.47 c-0.19,4.6-0.33,12.69-0.88,16.2c-0.03,0.19-0.39,1.76-0.39,1.76c-1.37,1.37-2.34,1.76-4.3,2.35c-1.17,0.39-3.56,0.97-4.93,1.21 c-0.061,0.011-0.122,0.016-0.182,0.016c-0.325,0-0.627-0.147-0.788-0.316c-1.2-1.41-3.07-2.812-4.44-4.572L71,66l-4-4l1,18l-3-3 l-2,20l-6-32l3,3l-3-21l4,4l-1.4-20.72c-0.337,0-0.658-0.002-0.971-0.002c-2.581,0-4.568,0.11-9.629,2.152V61l2,4H37l2-3.91V37.52 c-2.35,1.76-6.26,3.89-9,4.48v15l2,4H18l2-4l0.15-15.18c-1.95-0.78-5.432-2.784-7.383-4.018c-1.103-0.698-2.97-2.092-3.587-5.372 v-0.2c2.15-0.78,3.642-1.56,5.791-1.95c0,0.19,0.132,0.301-0.19,0.59c-0.567,0.508-1.506,1.224-2.251,1.863 c-0.653,0.56-0.603,1.583,0.108,2.067c0.084,0.057,0.168,0.113,0.252,0.17c1.57,0.98,4.13,1.96,5.89,2.74C19.18,37.91,20,38,20,38 V14l-2-4h14l-2,4v24c0.78-0.2,7.04-4,9-5.57V12l-2-4H50.91 M75.108,51.989c0.32,0,1.319-1.766,1.319-1.945 c0,0,1.37-6.848,1.37-8.804c0-5.652-0.587-9.478-1.37-13.196c0-0.391,0-0.587-0.196-0.783c-0.196-0.196-0.391-0.196-0.587-0.196 c0,0-3.884,0.543-5.645,0.935v20.435c0.783,0.978,3.424,2.658,5.038,3.505C75.055,51.974,75.079,51.989,75.108,51.989 M50.91,6H37 c-0.693,0-1.337,0.359-1.701,0.949c-0.364,0.59-0.398,1.326-0.088,1.946L37,12.472V31.43c-1.31,0.934-3.347,2.217-5,3.206V14.472 l1.789-3.578c0.31-0.62,0.277-1.356-0.088-1.946C33.337,8.359,32.693,8,32,8H18c-0.693,0-1.337,0.359-1.701,0.949 c-0.364,0.59-0.398,1.326-0.088,1.946L18,14.472v20.727c-1.167-0.494-2.442-1.038-3.423-1.565c0.105-0.085,0.209-0.17,0.313-0.253 c0.454-0.367,0.884-0.714,1.227-1.022c0.482-0.432,1.016-1.171,0.848-2.248c-0.045-0.53-0.299-1.023-0.711-1.367 c-0.362-0.303-0.817-0.465-1.282-0.465c-0.119,0-0.238,0.011-0.357,0.032c-1.73,0.314-3.054,0.84-4.456,1.398 c-0.521,0.207-1.065,0.424-1.66,0.64c-0.791,0.287-1.318,1.039-1.318,1.88v0.2c0,0.124,0.012,0.248,0.034,0.37 c0.823,4.378,3.578,6.121,4.484,6.693c1.568,0.992,4.303,2.597,6.439,3.62l-0.132,13.406l-1.794,3.587 c-0.31,0.62-0.277,1.356,0.088,1.946C16.663,62.641,17.307,63,18,63h14c0.693,0,1.337-0.359,1.701-0.949 c0.364-0.59,0.398-1.326,0.088-1.946L32,56.528V43.511c1.615-0.546,3.384-1.391,5-2.314v19.411l-1.781,3.481 c-0.317,0.62-0.289,1.36,0.074,1.954C35.657,66.638,36.304,67,37,67h14c0.693,0,1.337-0.359,1.701-0.949 c0.364-0.59,0.398-1.326,0.088-1.946L51,60.528V33.795c3.276-1.236,4.935-1.468,6.731-1.509l0.914,13.53l-0.231-0.231 C58.03,45.202,57.518,45,56.999,45c-0.304,0-0.61,0.069-0.894,0.211c-0.77,0.385-1.207,1.219-1.085,2.072l2.248,15.735 C57.179,63.006,57.089,63,56.999,63c-0.318,0-0.638,0.076-0.932,0.231c-0.776,0.409-1.194,1.276-1.033,2.138l6,32 C61.212,98.318,62.041,99,62.999,99c0.029,0,0.058-0.001,0.087-0.002c0.994-0.043,1.805-0.809,1.904-1.799l1.58-15.8l0.016,0.016 C66.969,81.797,67.481,82,68.001,82c0.276,0,0.554-0.057,0.816-0.174c0.757-0.338,1.227-1.109,1.181-1.937l-0.71-12.773 l0.298,0.298C69.969,67.797,70.481,68,71.001,68c0.279,0,0.561-0.059,0.826-0.179c0.759-0.344,1.225-1.123,1.169-1.955 l-0.638-9.527c0.204,0.208,0.393,0.41,0.56,0.606c0.024,0.028,0.048,0.055,0.073,0.081c0.558,0.588,1.395,0.938,2.238,0.938 c0.18,0,0.36-0.016,0.536-0.048c1.49-0.261,3.95-0.865,5.18-1.272c2.021-0.609,3.378-1.11,5.111-2.843 c0.266-0.266,0.451-0.601,0.535-0.967c0.375-1.637,0.406-1.832,0.416-1.895c0.444-2.834,0.628-8.391,0.776-12.856 c0.043-1.308,0.084-2.531,0.127-3.573c0.02-0.486-0.138-0.963-0.444-1.341c-1.986-2.452-5.818-8.28-7.078-10.196l-0.075-0.114 c-0.757-1.158-2.033-1.851-3.411-1.851c-0.4,0-0.798,0.059-1.184,0.175c-1.049,0.312-2.425,0.724-3.715,1.114V21 c0-1.105-0.895-2-2-2H59c-0.553,0-1.081,0.229-1.459,0.632s-0.572,0.945-0.537,1.497l0.25,3.867 c-2.052,0.176-4.478,0.635-6.254,1.014V12.453l1.715-3.591c0.296-0.62,0.253-1.348-0.113-1.929C52.235,6.352,51.597,6,50.91,6 L50.91,6z M72,29.653c0.89-0.154,1.872-0.306,2.631-0.419c0.706,3.51,1.166,6.995,1.166,12.005c0,1.231-0.755,5.496-1.271,8.109 c-1.023-0.624-1.97-1.285-2.526-1.747V29.653L72,29.653z"/><path fill="#1f212b" d="M64.865,37.008c-0.27,0-0.491-0.213-0.5-0.484L64,25.016c-0.009-0.276,0.208-0.507,0.484-0.515 c0.27-0.013,0.507,0.208,0.516,0.484l0.365,11.508c0.009,0.276-0.208,0.507-0.484,0.515C64.876,37.008,64.87,37.008,64.865,37.008z"/><path fill="#1f212b" d="M65.024,42.028c-0.27,0-0.491-0.213-0.5-0.484l-0.064-2.028c-0.009-0.276,0.208-0.507,0.484-0.516 c0.276-0.024,0.507,0.208,0.516,0.483l0.064,2.028c0.009,0.276-0.208,0.507-0.484,0.516C65.035,42.028,65.029,42.028,65.024,42.028 z"/><path fill="#1f212b" d="M65.211,47.896c-0.27,0-0.491-0.213-0.5-0.484l-0.098-3.064c-0.009-0.276,0.208-0.507,0.484-0.516 c0.288-0.026,0.507,0.208,0.516,0.483l0.098,3.064c0.009,0.276-0.208,0.507-0.484,0.516C65.222,47.896,65.216,47.896,65.211,47.896 z"/><path fill="#1f212b" d="M63,98c-0.264,0-0.483-0.205-0.499-0.471l-1.5-26c-0.012-0.207,0.105-0.4,0.295-0.485 c0.188-0.085,0.41-0.044,0.558,0.103l2.017,2.017l-1.868-19.616c-0.02-0.21,0.094-0.41,0.285-0.5 c0.191-0.091,0.417-0.05,0.566,0.099l2.106,2.106l-0.15-4.739c-0.009-0.276,0.208-0.507,0.484-0.515 c0.283-0.018,0.507,0.208,0.516,0.484L66,56.484c0.006,0.205-0.113,0.393-0.302,0.475c-0.186,0.08-0.406,0.041-0.552-0.105 l-2.017-2.017l1.868,19.616c0.02,0.21-0.094,0.41-0.285,0.5s-0.417,0.05-0.566-0.099l-2.071-2.072l1.424,24.689 c0.016,0.276-0.194,0.512-0.471,0.528C63.019,98,63.009,98,63,98z"/><path fill="#1f212b" d="M43.5,12.5c-0.094,0-0.188-0.026-0.271-0.08l-7-4.5l0.541-0.841l6.747,4.337l7.737-4.352l0.49,0.871 l-8,4.5C43.669,12.479,43.584,12.5,43.5,12.5z"/><path fill="#1f212b" d="M64.5,25.5c-0.105,0-0.211-0.033-0.3-0.1l-6-4.5l0.6-0.8l5.7,4.275l5.7-4.275l0.6,0.8l-6,4.5 C64.711,25.467,64.605,25.5,64.5,25.5z"/><path fill="#1f212b" d="M24.5,14.5c-0.094,0-0.188-0.026-0.271-0.08l-7-4.5l0.541-0.841l6.747,4.337l7.737-4.352l0.49,0.871 l-8,4.5C24.669,14.479,24.584,14.5,24.5,14.5z"/><path fill="#1f212b" d="M32.255,61.936l-7.737-4.352l-6.747,4.337l-0.541-0.841l7-4.5c0.155-0.102,0.354-0.107,0.516-0.015 l8,4.5L32.255,61.936z"/><path fill="#1f212b" d="M51.255,65.936l-7.737-4.352l-6.747,4.337l-0.541-0.841l7-4.5c0.155-0.101,0.354-0.107,0.516-0.015 l8,4.5L51.255,65.936z"/><path fill="#1f212b" d="M24.5,57.5c-0.276,0-0.5-0.224-0.5-0.5V38.5c0-0.276,0.224-0.5,0.5-0.5s0.5,0.224,0.5,0.5V57 C25,57.276,24.776,57.5,24.5,57.5z"/><path fill="#1f212b" d="M24.5,31.978c-0.276,0-0.5-0.224-0.5-0.5v-4.956c0-0.276,0.224-0.5,0.5-0.5s0.5,0.224,0.5,0.5v4.956 C25,31.754,24.776,31.978,24.5,31.978z"/><path fill="#1f212b" d="M24.5,23.957c-0.276,0-0.5-0.224-0.5-0.5V14c0-0.276,0.224-0.5,0.5-0.5S25,13.724,25,14v9.457 C25,23.733,24.776,23.957,24.5,23.957z"/><rect width="1" height="49" x="43" y="12" fill="#1f212b"/><path fill="#1f212b" d="M75.167,51.973l-0.322-0.946c2.366-0.807,5.01-2.068,5.173-2.66 c0.403-1.459,0.81-9.485,0.976-13.696l-5.64-6.853l0.771-0.636l5.761,7c0.078,0.095,0.118,0.215,0.114,0.337 c-0.02,0.495-0.477,12.152-1.018,14.113C80.598,50.025,76.434,51.542,75.167,51.973z"/></svg>