<svg width="55" height="61" viewBox="0 0 55 61" fill="none" xmlns="http://www.w3.org/2000/svg">
<path d="M54.4816 39.8445C44.1258 32.3133 42.5819 19.8095 50.6388 8.7314C50.7882 8.52617 50.8553 8.27249 50.8271 8.02024C50.7989 7.76799 50.6774 7.53541 50.4864 7.36823L42.3531 0.251543C42.1589 0.0817371 41.9075 -0.00796176 41.6497 0.000604002C41.3919 0.00916976 41.147 0.11536 40.9646 0.29768C39.2419 2.15476 37.1493 3.63047 34.8217 4.62978C32.494 5.6291 29.9829 6.12987 27.45 6.09985C24.9171 6.12987 22.406 5.6291 20.0783 4.62978C17.7507 3.63047 15.6582 2.15476 13.9354 0.29768C13.753 0.115341 13.5081 0.00913381 13.2503 0.000562225C12.9925 -0.00800936 12.7411 0.0816946 12.547 0.251513L4.41362 7.3682C4.22264 7.53538 4.1011 7.76796 4.0729 8.02021C4.0447 8.27246 4.11188 8.52614 4.26122 8.73137C12.3181 19.8095 10.7743 32.3133 0.418426 39.8445C0.303743 39.928 0.207796 40.0346 0.13675 40.1574C0.0657031 40.2802 0.0211275 40.4165 0.00588693 40.5575C-0.00935368 40.6986 0.00507752 40.8412 0.0482536 40.9764C0.0914296 41.1115 0.162396 41.2361 0.256593 41.3422L8.38995 50.4922C8.48205 50.5957 8.59432 50.6794 8.7199 50.7379C8.84547 50.7965 8.98168 50.8288 9.12018 50.8328C9.25897 50.8397 9.39761 50.8166 9.52675 50.7654C9.65589 50.7141 9.77252 50.6357 9.86879 50.5355L12.0004 48.4043C14.5197 52.2546 17.4382 53.3134 20.0385 54.2571C22.8546 55.2792 25.0791 56.0864 26.4855 60.305C26.553 60.5074 26.6825 60.6834 26.8556 60.8082C27.0287 60.9329 27.2367 61 27.45 61C27.6634 61 27.8713 60.9329 28.0444 60.8082C28.2175 60.6834 28.347 60.5074 28.4146 60.305C29.8209 56.0864 32.0454 55.2792 34.8615 54.2571C37.4618 53.3134 40.3802 52.2545 42.8996 48.4043L45.0313 50.5355C45.1277 50.6354 45.2444 50.7137 45.3735 50.7649C45.5026 50.8162 45.6411 50.8393 45.7799 50.8328C45.9184 50.8288 46.0546 50.7965 46.1802 50.7379C46.3057 50.6794 46.418 50.5957 46.5101 50.4922L54.6435 41.3422C54.7377 41.2361 54.8086 41.1115 54.8518 40.9764C54.895 40.8412 54.9094 40.6986 54.8942 40.5575C54.8789 40.4165 54.8344 40.2802 54.7633 40.1574C54.6923 40.0346 54.5963 39.928 54.4816 39.8445L54.4816 39.8445ZM41.7171 2.39705L48.4576 8.29448C44.5871 13.9261 42.9939 19.8646 43.5556 25.4165H30.5V7.90242C34.7265 7.29749 38.6531 5.37034 41.7171 2.39705V2.39705ZM6.4425 8.29448L13.1829 2.39705C16.247 5.37034 20.1735 7.29749 24.4 7.90242V25.4166H11.3444C11.9062 19.8647 10.3129 13.9262 6.4425 8.29448ZM20.732 52.3458C18.1029 51.3917 15.3845 50.4053 13.0886 46.2726C13.0121 46.1352 12.9048 46.0173 12.7751 45.9284C12.6453 45.8394 12.4967 45.7817 12.341 45.7598C12.2943 45.7534 12.2471 45.7501 12.2 45.75C12.0665 45.75 11.9343 45.7763 11.811 45.8274C11.6876 45.8785 11.5756 45.9534 11.4812 46.0478L9.19369 48.3353L2.50687 40.8131C5.6759 38.3782 8.17608 35.1798 9.77385 31.5166H24.4V54.0237C23.2478 53.3217 22.0165 52.7585 20.732 52.3459L20.732 52.3458ZM27.45 57.4C27.1582 56.8667 26.8178 56.3615 26.4333 55.8906V30.4999C26.4333 30.2303 26.3262 29.9717 26.1356 29.781C25.9449 29.5904 25.6863 29.4832 25.4167 29.4832H10.5177C10.7243 28.8146 10.8971 28.1359 11.0356 27.4499H25.4167C25.6863 27.4499 25.9449 27.3428 26.1356 27.1521C26.3262 26.9615 26.4333 26.7029 26.4333 26.4332V8.08851C26.7722 8.10359 27.1051 8.13319 27.45 8.13319C27.795 8.13319 28.1279 8.1036 28.4667 8.08851V26.4332C28.4667 26.7029 28.5738 26.9615 28.7645 27.1521C28.9551 27.3428 29.2137 27.4499 29.4834 27.4499H43.8645C44.0029 28.1359 44.1758 28.8146 44.3824 29.4832H29.4834C29.2137 29.4832 28.9551 29.5904 28.7645 29.781C28.5738 29.9717 28.4667 30.2303 28.4667 30.4999V55.8906C28.0822 56.3615 27.7419 56.8667 27.45 57.4V57.4ZM45.7064 48.3353L43.4188 46.0478C43.3076 45.9366 43.172 45.8527 43.0229 45.8027C42.8737 45.7528 42.7149 45.7381 42.5591 45.7599C42.4033 45.7817 42.2547 45.8393 42.125 45.9283C41.9952 46.0173 41.8879 46.1352 41.8114 46.2727C39.5155 50.4054 36.7971 51.3918 34.168 52.3459C32.8835 52.7585 31.6522 53.3216 30.5 54.0236V31.5166H45.1262C46.724 35.1797 49.2241 38.3781 52.3932 40.813L45.7064 48.3353Z" fill="white"/>
</svg>
