<svg width="105" height="117" viewBox="0 0 105 117" fill="none" xmlns="http://www.w3.org/2000/svg">
<path d="M48.4 11.9185V50.4167H18.15C20.0255 38.5788 16.5568 25.7932 8.06665 14.1167L24.2 0C30.5468 6.78638 39.1514 11.0242 48.4 11.9185Z" fill="#BA2A2A"/>
<path d="M52.4333 116.966C53.2585 114.238 54.6309 111.706 56.4667 109.525V100.161C54.8937 101.936 51.0049 105.119 49.8285 109.152C48.7193 105.845 51.3242 113.659 52.4333 116.966Z" fill="#D86A07"/>
<path d="M86.7167 50.4167H56.4667V11.9185C65.7153 11.0242 74.3199 6.78638 80.6667 0L96.8 14.1167C88.3098 25.7932 84.8412 38.5788 86.7167 50.4167Z" fill="#398E3D"/>
<path d="M96.8 14.1167L80.6667 0C79.3673 1.29924 77.9953 2.52387 76.5575 3.66801L89.3632 14.8729C81.0529 26.302 77.5676 38.7914 79.1817 50.4167H86.7167C84.8412 38.5788 88.3098 25.7932 96.8 14.1167Z" fill="#327732"/>
<path d="M104.867 78.6501L88.7333 96.8001L82.6833 90.7501C74.4352 105.593 63.4847 101.559 56.4667 109.525V58.4834H88.8543C92.1074 66.6253 97.674 73.6362 104.867 78.6501Z" fill="#0288D0"/>
<path d="M102.61 76.8925C101.96 76.3563 101.326 75.8124 100.709 75.2607C95.4668 70.7022 91.4004 64.9472 88.8543 58.4834L81.4593 59.3237C84.6627 67.3411 90.1162 74.2611 97.1627 79.2498L88.7333 88.7329L83.4549 84.0307C83.2494 83.8462 83.0081 83.7061 82.746 83.6192C82.4839 83.5324 82.2066 83.5006 81.9316 83.5259C81.6567 83.5512 81.3899 83.633 81.148 83.7662C80.9061 83.8994 80.6944 84.0812 80.526 84.3001C68.3146 100.581 63.9031 94.2792 56.4667 101.458V109.525C63.4847 101.559 74.4352 105.593 82.6833 90.7501L85.2138 93.2805L88.7333 96.8001L104.867 78.6501C104.083 78.0793 103.344 77.4874 102.61 76.8925Z" fill="#0579AD"/>
<path d="M86.7166 50.4165H79.2798C79.69 53.1765 80.407 55.8822 81.4175 58.4832H88.8543C87.8439 55.8822 87.1269 53.1765 86.7166 50.4165Z" fill="#D86A07"/>
<path d="M48.4 11.9185V11.9467C48.5077 11.9386 48.6069 11.9411 48.715 11.9326C48.6068 11.9238 48.5087 11.9279 48.4 11.9185Z" fill="#F57B02"/>
<path d="M48.4 58.4834V109.525C41.382 101.559 30.4315 105.593 22.1833 90.7501L16.1333 96.8001L-1.52588e-05 78.6501C7.19267 73.6362 12.7593 66.6253 16.0123 58.4834H48.4Z" fill="#FBC12E"/>
<path d="M88.8543 58.4833H56.4667V109.525C54.6308 111.706 53.2585 114.238 52.4333 116.967C51.6081 114.238 50.2358 111.706 48.4 109.525V58.4833H16.0123C17.0228 55.8823 17.7398 53.1767 18.15 50.4166H48.4V11.9185C49.7915 12.0395 51.1427 12.1 52.4333 12.1C53.724 12.1 55.0752 12.0395 56.4667 11.9185V50.4166H86.7167C87.1269 53.1767 87.8439 55.8823 88.8543 58.4833Z" fill="#F57B02"/>
<path d="M49.0298 11.9185C48.9211 11.9279 48.8232 11.9239 48.715 11.9326C48.823 11.9412 48.9221 11.9387 49.0298 11.9467V11.9185Z" fill="#F57B02"/>
</svg>
